# xmcd
#
# Track frame offsets: 
#        150
#        19354
#        41334
#        75089
#        112518
#        133375
#        161480
#        183132
#        207660
#        234283
#
# Disc length: 3304 seconds
#
# Revision: 0
# Processed by: cddbd v1.5.2PL0 Copyright (c) Steve Scherf et al.
# Submitted via: ExactAudioCopy v1.3
#
DISCID=710ce60a
DTITLE=Mr. B's Joybox Express Quartet - Live
DYEAR=2010
DGENRE=Blues
TTITLE0=The Ray
TTITLE1=Mardi Gras In New Orleans
TTITLE2=Hi-Heel Sneakers
TTITLE3=One Room Country Shack
TTITLE4=Hillbilly Holiday
TTITLE5=44 Blues
TTITLE6=Down The Road A Piece
TTITLE7=Make Me A Pallet
TTITLE8=The Saints
TTITLE9=Father And Son Boogie (bonus track)
EXTD=
EXTT0=
EXTT1=
EXTT2=
EXTT3=
EXTT4=
EXTT5=
EXTT6=
EXTT7=
EXTT8=
EXTT9=
PLAYORDER=
